<svg width="869" height="631" viewBox="0 0 869 631" fill="none" xmlns="http://www.w3.org/2000/svg">
<path d="M361.853 529.853L569.643 322.063L767.706 124L851.353 207.647L445.5 613.5L361.853 529.853Z" fill="#002FA7"/>
<path d="M784.788 630.212L570.376 415.8L366 211.424L449.644 127.78L868.432 546.568L784.788 630.212Z" fill="#002FA7"/>
<path d="M90.2273 63.5H70.3182C69.9545 60.9242 69.2121 58.6364 68.0909 56.6364C66.9697 54.6061 65.5303 52.8788 63.7727 51.4545C62.0152 50.0303 59.9848 48.9394 57.6818 48.1818C55.4091 47.4242 52.9394 47.0455 50.2727 47.0455C45.4545 47.0455 41.2576 48.2424 37.6818 50.6364C34.1061 53 31.3333 56.4545 29.3636 61C27.3939 65.5151 26.4091 71 26.4091 77.4545C26.4091 84.0909 27.3939 89.6667 29.3636 94.1818C31.3636 98.697 34.1515 102.106 37.7273 104.409C41.303 106.712 45.4394 107.864 50.1364 107.864C52.7727 107.864 55.2121 107.515 57.4545 106.818C59.7273 106.121 61.7424 105.106 63.5 103.773C65.2576 102.409 66.7121 100.758 67.8636 98.8182C69.0455 96.8788 69.8636 94.6667 70.3182 92.1818L90.2273 92.2727C89.7121 96.5455 88.4242 100.667 86.3636 104.636C84.3333 108.576 81.5909 112.106 78.1364 115.227C74.7121 118.318 70.6212 120.773 65.8636 122.591C61.1364 124.379 55.7879 125.273 49.8182 125.273C41.5152 125.273 34.0909 123.394 27.5455 119.636C21.0303 115.879 15.8788 110.439 12.0909 103.318C8.33333 96.197 6.45455 87.5758 6.45455 77.4545C6.45455 67.303 8.36364 58.6667 12.1818 51.5455C16 44.4242 21.1818 39 27.7273 35.2727C34.2727 31.5151 41.6364 29.6364 49.8182 29.6364C55.2121 29.6364 60.2121 30.3939 64.8182 31.9091C69.4545 33.4242 73.5606 35.6364 77.1364 38.5454C80.7121 41.4242 83.6212 44.9545 85.8636 49.1364C88.1364 53.3182 89.5909 58.1061 90.2273 63.5ZM135.523 125.364C128.462 125.364 122.356 123.864 117.205 120.864C112.083 117.833 108.129 113.621 105.341 108.227C102.553 102.803 101.159 96.5152 101.159 89.3636C101.159 82.1515 102.553 75.8485 105.341 70.4545C108.129 65.0303 112.083 60.8182 117.205 57.8182C122.356 54.7879 128.462 53.2727 135.523 53.2727C142.583 53.2727 148.674 54.7879 153.795 57.8182C158.947 60.8182 162.917 65.0303 165.705 70.4545C168.492 75.8485 169.886 82.1515 169.886 89.3636C169.886 96.5152 168.492 102.803 165.705 108.227C162.917 113.621 158.947 117.833 153.795 120.864C148.674 123.864 142.583 125.364 135.523 125.364ZM135.614 110.364C138.826 110.364 141.508 109.455 143.659 107.636C145.811 105.788 147.432 103.273 148.523 100.091C149.644 96.9091 150.205 93.2879 150.205 89.2273C150.205 85.1667 149.644 81.5455 148.523 78.3636C147.432 75.1818 145.811 72.6667 143.659 70.8182C141.508 68.9697 138.826 68.0455 135.614 68.0455C132.371 68.0455 129.644 68.9697 127.432 70.8182C125.25 72.6667 123.598 75.1818 122.477 78.3636C121.386 81.5455 120.841 85.1667 120.841 89.2273C120.841 93.2879 121.386 96.9091 122.477 100.091C123.598 103.273 125.25 105.788 127.432 107.636C129.644 109.455 132.371 110.364 135.614 110.364ZM208.205 125.136C202.902 125.136 198.098 123.773 193.795 121.045C189.523 118.288 186.129 114.242 183.614 108.909C181.129 103.545 179.886 96.9697 179.886 89.1818C179.886 81.1818 181.174 74.5303 183.75 69.2273C186.326 63.8939 189.75 59.9091 194.023 57.2727C198.326 54.6061 203.038 53.2727 208.159 53.2727C212.068 53.2727 215.326 53.9394 217.932 55.2727C220.568 56.5758 222.689 58.2121 224.295 60.1818C225.932 62.1212 227.174 64.0303 228.023 65.9091H228.614V30.9091H247.932V124H228.841V112.818H228.023C227.114 114.758 225.826 116.682 224.159 118.591C222.523 120.47 220.386 122.03 217.75 123.273C215.144 124.515 211.962 125.136 208.205 125.136ZM214.341 109.727C217.462 109.727 220.098 108.879 222.25 107.182C224.432 105.455 226.098 103.045 227.25 99.9545C228.432 96.8636 229.023 93.2424 229.023 89.0909C229.023 84.9394 228.447 81.3333 227.295 78.2727C226.144 75.2121 224.477 72.8485 222.295 71.1818C220.114 69.5151 217.462 68.6818 214.341 68.6818C211.159 68.6818 208.477 69.5455 206.295 71.2727C204.114 73 202.462 75.3939 201.341 78.4545C200.22 81.5151 199.659 85.0606 199.659 89.0909C199.659 93.1515 200.22 96.7424 201.341 99.8636C202.492 102.955 204.144 105.379 206.295 107.136C208.477 108.864 211.159 109.727 214.341 109.727ZM295.67 125.364C288.489 125.364 282.307 123.909 277.125 121C271.973 118.061 268.004 113.909 265.216 108.545C262.428 103.152 261.034 96.7727 261.034 89.4091C261.034 82.2273 262.428 75.9242 265.216 70.5C268.004 65.0758 271.928 60.8485 276.989 57.8182C282.08 54.7879 288.049 53.2727 294.898 53.2727C299.504 53.2727 303.792 54.0152 307.761 55.5C311.761 56.9545 315.246 59.1515 318.216 62.0909C321.216 65.0303 323.549 68.7273 325.216 73.1818C326.883 77.6061 327.716 82.7879 327.716 88.7273V94.0455H268.761V82.0455H309.489C309.489 79.2576 308.883 76.7879 307.67 74.6364C306.458 72.4848 304.777 70.803 302.625 69.5909C300.504 68.3485 298.034 67.7273 295.216 67.7273C292.277 67.7273 289.67 68.4091 287.398 69.7727C285.155 71.1061 283.398 72.9091 282.125 75.1818C280.852 77.4242 280.201 79.9242 280.17 82.6818V94.0909C280.17 97.5455 280.807 100.53 282.08 103.045C283.383 105.561 285.216 107.5 287.58 108.864C289.943 110.227 292.746 110.909 295.989 110.909C298.14 110.909 300.11 110.606 301.898 110C303.686 109.394 305.216 108.485 306.489 107.273C307.761 106.061 308.731 104.576 309.398 102.818L327.307 104C326.398 108.303 324.534 112.061 321.716 115.273C318.928 118.455 315.322 120.939 310.898 122.727C306.504 124.485 301.428 125.364 295.67 125.364ZM340.352 124V54.1818H359.125V66.3636H359.852C361.125 62.0303 363.261 58.7576 366.261 56.5455C369.261 54.303 372.716 53.1818 376.625 53.1818C377.595 53.1818 378.64 53.2424 379.761 53.3636C380.883 53.4848 381.867 53.6515 382.716 53.8636V71.0455C381.807 70.7727 380.549 70.5303 378.943 70.3182C377.337 70.1061 375.867 70 374.534 70C371.686 70 369.14 70.6212 366.898 71.8636C364.686 73.0758 362.928 74.7727 361.625 76.9545C360.352 79.1364 359.716 81.6515 359.716 84.5V124H340.352Z" fill="black"/>
<path d="M168.955 215.909V309H151.955L111.455 250.409H110.773V309H91.0909V215.909H108.364L148.545 274.455H149.364V215.909H168.955ZM216.398 310.364C209.337 310.364 203.231 308.864 198.08 305.864C192.958 302.833 189.004 298.621 186.216 293.227C183.428 287.803 182.034 281.515 182.034 274.364C182.034 267.152 183.428 260.848 186.216 255.455C189.004 250.03 192.958 245.818 198.08 242.818C203.231 239.788 209.337 238.273 216.398 238.273C223.458 238.273 229.549 239.788 234.67 242.818C239.822 245.818 243.792 250.03 246.58 255.455C249.367 260.848 250.761 267.152 250.761 274.364C250.761 281.515 249.367 287.803 246.58 293.227C243.792 298.621 239.822 302.833 234.67 305.864C229.549 308.864 223.458 310.364 216.398 310.364ZM216.489 295.364C219.701 295.364 222.383 294.455 224.534 292.636C226.686 290.788 228.307 288.273 229.398 285.091C230.519 281.909 231.08 278.288 231.08 274.227C231.08 270.167 230.519 266.545 229.398 263.364C228.307 260.182 226.686 257.667 224.534 255.818C222.383 253.97 219.701 253.045 216.489 253.045C213.246 253.045 210.519 253.97 208.307 255.818C206.125 257.667 204.473 260.182 203.352 263.364C202.261 266.545 201.716 270.167 201.716 274.227C201.716 278.288 202.261 281.909 203.352 285.091C204.473 288.273 206.125 290.788 208.307 292.636C210.519 294.455 213.246 295.364 216.489 295.364ZM300.489 239.182V253.727H258.443V239.182H300.489ZM267.989 222.455H287.352V287.545C287.352 289.333 287.625 290.727 288.17 291.727C288.716 292.697 289.473 293.379 290.443 293.773C291.443 294.167 292.595 294.364 293.898 294.364C294.807 294.364 295.716 294.288 296.625 294.136C297.534 293.955 298.231 293.818 298.716 293.727L301.761 308.136C300.792 308.439 299.428 308.788 297.67 309.182C295.913 309.606 293.777 309.864 291.261 309.955C286.595 310.136 282.504 309.515 278.989 308.091C275.504 306.667 272.792 304.455 270.852 301.455C268.913 298.455 267.958 294.667 267.989 290.091V222.455Z" fill="black"/>
<path d="M62.5455 434.136V417.909H139V434.136H110.5V511H91.0455V434.136H62.5455ZM161.636 512.318C157.182 512.318 153.212 511.545 149.727 510C146.242 508.424 143.485 506.106 141.455 503.045C139.455 499.955 138.455 496.106 138.455 491.5C138.455 487.621 139.167 484.364 140.591 481.727C142.015 479.091 143.955 476.97 146.409 475.364C148.864 473.758 151.652 472.545 154.773 471.727C157.924 470.909 161.227 470.333 164.682 470C168.742 469.576 172.015 469.182 174.5 468.818C176.985 468.424 178.788 467.848 179.909 467.091C181.03 466.333 181.591 465.212 181.591 463.727V463.455C181.591 460.576 180.682 458.348 178.864 456.773C177.076 455.197 174.53 454.409 171.227 454.409C167.742 454.409 164.97 455.182 162.909 456.727C160.848 458.242 159.485 460.152 158.818 462.455L140.909 461C141.818 456.758 143.606 453.091 146.273 450C148.939 446.879 152.379 444.485 156.591 442.818C160.833 441.121 165.742 440.273 171.318 440.273C175.197 440.273 178.909 440.727 182.455 441.636C186.03 442.545 189.197 443.955 191.955 445.864C194.742 447.773 196.939 450.227 198.545 453.227C200.152 456.197 200.955 459.758 200.955 463.909V511H182.591V501.318H182.045C180.924 503.5 179.424 505.424 177.545 507.091C175.667 508.727 173.409 510.015 170.773 510.955C168.136 511.864 165.091 512.318 161.636 512.318ZM167.182 498.955C170.03 498.955 172.545 498.394 174.727 497.273C176.909 496.121 178.621 494.576 179.864 492.636C181.106 490.697 181.727 488.5 181.727 486.045V478.636C181.121 479.03 180.288 479.394 179.227 479.727C178.197 480.03 177.03 480.318 175.727 480.591C174.424 480.833 173.121 481.061 171.818 481.273C170.515 481.455 169.333 481.621 168.273 481.773C166 482.106 164.015 482.636 162.318 483.364C160.621 484.091 159.303 485.076 158.364 486.318C157.424 487.53 156.955 489.045 156.955 490.864C156.955 493.5 157.909 495.515 159.818 496.909C161.758 498.273 164.212 498.955 167.182 498.955ZM235.341 417.909V511H215.977V417.909H235.341ZM268.398 490.909L268.443 467.682H271.261L293.625 441.182H315.852L285.807 476.273H281.216L268.398 490.909ZM250.852 511V417.909H270.216V511H250.852ZM294.489 511L273.943 480.591L286.852 466.909L317.17 511H294.489ZM354.295 512.364C347.114 512.364 340.932 510.909 335.75 508C330.598 505.061 326.629 500.909 323.841 495.545C321.053 490.152 319.659 483.773 319.659 476.409C319.659 469.227 321.053 462.924 323.841 457.5C326.629 452.076 330.553 447.848 335.614 444.818C340.705 441.788 346.674 440.273 353.523 440.273C358.129 440.273 362.417 441.015 366.386 442.5C370.386 443.955 373.871 446.152 376.841 449.091C379.841 452.03 382.174 455.727 383.841 460.182C385.508 464.606 386.341 469.788 386.341 475.727V481.045H327.386V469.045H368.114C368.114 466.258 367.508 463.788 366.295 461.636C365.083 459.485 363.402 457.803 361.25 456.591C359.129 455.348 356.659 454.727 353.841 454.727C350.902 454.727 348.295 455.409 346.023 456.773C343.78 458.106 342.023 459.909 340.75 462.182C339.477 464.424 338.826 466.924 338.795 469.682V481.091C338.795 484.545 339.432 487.53 340.705 490.045C342.008 492.561 343.841 494.5 346.205 495.864C348.568 497.227 351.371 497.909 354.614 497.909C356.765 497.909 358.735 497.606 360.523 497C362.311 496.394 363.841 495.485 365.114 494.273C366.386 493.061 367.356 491.576 368.023 489.818L385.932 491C385.023 495.303 383.159 499.061 380.341 502.273C377.553 505.455 373.947 507.939 369.523 509.727C365.129 511.485 360.053 512.364 354.295 512.364ZM398.977 511V441.182H417.75V453.364H418.477C419.75 449.03 421.886 445.758 424.886 443.545C427.886 441.303 431.341 440.182 435.25 440.182C436.22 440.182 437.265 440.242 438.386 440.364C439.508 440.485 440.492 440.652 441.341 440.864V458.045C440.432 457.773 439.174 457.53 437.568 457.318C435.962 457.106 434.492 457 433.159 457C430.311 457 427.765 457.621 425.523 458.864C423.311 460.076 421.553 461.773 420.25 463.955C418.977 466.136 418.341 468.652 418.341 471.5V511H398.977Z" fill="black"/>
</svg>
